<?xml version="1.0" encoding="UTF-8"?>
<svg width="242px" height="205px" viewBox="0 0 242 205" version="1.1" xmlns="http://www.w3.org/2000/svg" xmlns:xlink="http://www.w3.org/1999/xlink">
    <!-- Generator: Sketch 44.1 (41455) - http://www.bohemiancoding.com/sketch -->
    <title>Toad-Original</title>
    <desc>Created with Sketch.</desc>
    <defs>
        <polygon id="path-1" points="0.06 0.850225652 0.06 196.94 241.781 196.94 241.781 98.8951128 241.781 0.850225652 0.06 0.850225652"></polygon>
    </defs>
    <g id="Page-1" stroke="none" stroke-width="1" fill="none" fill-rule="evenodd">
        <g id="Toad-Original">
            <path d="M73.166,59.362 L74.571,58.239 C74.085,57.633 72.389,55.654 70.946,55.654 L69.823,55.654 L69.823,57.451 L70.946,57.451 C71.311,57.467 72.391,58.397 73.166,59.362" id="Fill-1" fill="#1A1918"></path>
            <path d="M88.704,57.86 C89.885,57.281 91.332,56.652 92.186,56.545 C92.481,56.509 92.706,56.54 92.815,56.633 C92.936,56.736 92.971,56.951 92.973,57.018 L94.772,57.003 C94.772,56.897 94.752,55.944 94.008,55.29 C93.655,54.975 93.01,54.631 91.961,54.762 C90.047,55.001 86.623,56.901 86.241,57.118 L83.248,58.801 L88.704,58.801 C88.704,58.801 88.704,58.33 88.704,57.86" id="Fill-2" fill="#1A1918"></path>
            <path d="M55.733,68.538 C56.262,68.605 57.274,68.73 57.274,68.73 C57.274,68.73 57.465,68.577 57.547,68.512 C57.661,68.44 60.348,66.83 77.733,65.993 C84.21,65.68 91.104,65.557 97.772,65.435 C110.713,65.206 122.938,64.986 132.67,63.51 C144.919,61.655 156.058,54.086 159.96,51.186 C159.96,51.708 159.96,52.281 159.96,52.281 L166.253,52.281 L160.835,48.219 L160.291,48.663 C160.156,48.772 146.812,59.55 132.401,61.733 C122.788,63.189 110.62,63.408 97.741,63.638 C91.059,63.76 84.151,63.882 77.645,64.195 C62.432,64.93 58.063,66.261 56.835,66.865 C56.43,66.812 54.692,66.595 54.692,66.595 L53.282,69.412 L54.891,70.217 C54.891,70.217 55.413,69.172 55.733,68.538" id="Fill-3" fill="#1A1918"></path>
            <path d="M63.655,34.276 C68.221,28.929 75.512,31.123 78.362,32.273 C76.325,34.153 74.329,36.046 72.707,37.596 C68.547,41.584 64.586,46.916 62.86,49.339 C61.825,48.232 60.336,46.22 60.045,43.55 C59.721,40.58 60.936,37.459 63.655,34.276" id="Fill-4" fill="#3EA447"></path>
            <path d="M63.655,34.276 C68.221,28.929 75.512,31.123 78.362,32.273 C76.325,34.153 74.329,36.046 72.707,37.596 C68.547,41.584 64.586,46.916 62.86,49.339 C61.825,48.232 60.336,46.22 60.045,43.55 C59.721,40.58 60.936,37.459 63.655,34.276" id="Fill-5" fill="#3EA447"></path>
            <path d="M60.208,55.687 L64.098,52.282 L64.196,52.139 C64.247,52.063 69.35,44.551 74.575,39.544 C76.831,37.384 78.997,35.356 80.952,33.565 C80.825,33.892 80.717,34.216 80.641,34.526 C77.723,45.968 77.69,60.231 77.69,60.373 L79.487,60.373 C79.487,60.234 79.524,46.189 82.381,34.97 C82.811,33.285 84.254,31.129 85.438,29.563 C87.538,27.749 89.02,26.586 89.541,26.375 C90.948,25.982 95.028,25.982 96.571,25.982 C97.534,25.982 98.987,26.05 100.092,26.11 C99.639,26.71 99.127,27.322 98.719,27.771 C98.219,28.324 98.258,29.178 98.811,29.677 C99.364,30.178 100.215,30.136 100.717,29.587 C101.122,29.139 103.18,26.826 103.694,25.285 C104.262,23.582 109.606,8.746 122.29,12.221 C128.235,13.852 132.116,16.725 133.813,20.761 C136.844,27.958 132.081,36.704 132.03,36.791 C131.672,37.442 131.905,38.262 132.557,38.625 C133.208,38.986 134.028,38.753 134.389,38.101 C134.508,37.888 136.024,35.115 136.907,31.303 C138.764,32.076 144.363,34.413 146.546,35.506 C147.919,36.193 149.841,37.605 151.312,38.753 C148.607,39.519 146.869,40.454 146.722,40.534 C146.074,40.892 145.832,41.709 146.191,42.363 C146.546,43.016 147.367,43.257 148.017,42.9 C148.06,42.878 150.648,41.495 154.41,40.813 C154.517,40.807 154.625,40.79 154.726,40.759 C156.923,40.391 159.49,40.272 162.175,40.794 C163.898,41.126 165.945,42.223 167.806,43.774 C163.859,42.373 158.281,40.804 154.623,41.51 C151.857,42.039 147.437,44.747 142.306,47.883 C136,51.742 128.85,56.118 122.866,57.706 C112.586,60.433 92.973,61.641 78.331,62.173 L70.815,62.484 C64.155,62.776 58.405,63.031 57.585,62.38 C57.063,61.945 57.239,61.257 57.735,59.898 L58.098,58.822 C58.362,57.907 58.879,56.801 59.231,56.103 C59.501,55.988 59.76,55.877 60.008,55.771 L60.208,55.687" id="Fill-6" fill="#3EA447"></path>
            <path d="M60.208,55.687 L64.098,52.282 L64.196,52.139 C64.247,52.063 69.35,44.551 74.575,39.544 C76.831,37.384 78.997,35.356 80.952,33.565 C80.825,33.892 80.717,34.216 80.641,34.526 C77.723,45.968 77.69,60.231 77.69,60.373 L79.487,60.373 C79.487,60.234 79.524,46.189 82.381,34.97 C82.811,33.285 84.254,31.129 85.438,29.563 C87.538,27.749 89.02,26.586 89.541,26.375 C90.948,25.982 95.028,25.982 96.571,25.982 C97.534,25.982 98.987,26.05 100.092,26.11 C99.639,26.71 99.127,27.322 98.719,27.771 C98.219,28.324 98.258,29.178 98.811,29.677 C99.364,30.178 100.215,30.136 100.717,29.587 C101.122,29.139 103.18,26.826 103.694,25.285 C104.262,23.582 109.606,8.746 122.29,12.221 C128.235,13.852 132.116,16.725 133.813,20.761 C136.844,27.958 132.081,36.704 132.03,36.791 C131.672,37.442 131.905,38.262 132.557,38.625 C133.208,38.986 134.028,38.753 134.389,38.101 C134.508,37.888 136.024,35.115 136.907,31.303 C138.764,32.076 144.363,34.413 146.546,35.506 C147.919,36.193 149.841,37.605 151.312,38.753 C148.607,39.519 146.869,40.454 146.722,40.534 C146.074,40.892 145.832,41.709 146.191,42.363 C146.546,43.016 147.367,43.257 148.017,42.9 C148.06,42.878 150.648,41.495 154.41,40.813 C154.517,40.807 154.625,40.79 154.726,40.759 C156.923,40.391 159.49,40.272 162.175,40.794 C163.898,41.126 165.945,42.223 167.806,43.774 C163.859,42.373 158.281,40.804 154.623,41.51 C151.857,42.039 147.437,44.747 142.306,47.883 C136,51.742 128.85,56.118 122.866,57.706 C112.586,60.433 92.973,61.641 78.331,62.173 L70.815,62.484 C64.155,62.776 58.405,63.031 57.585,62.38 C57.063,61.945 57.239,61.257 57.735,59.898 L58.098,58.822 C58.362,57.907 58.879,56.801 59.231,56.103 C59.501,55.988 59.76,55.877 60.008,55.771 L60.208,55.687" id="Fill-7" fill="#3EA447"></path>
            <path d="M51.581,59.836 C52.135,59.373 54.415,58.262 56.762,57.198 C56.612,57.577 56.475,57.962 56.368,58.329 L56.045,59.281 C55.555,60.626 54.881,62.47 56.434,63.762 C57.688,64.807 61.127,64.71 70.893,64.28 L78.395,63.97 C93.131,63.434 112.887,62.213 123.327,59.446 C129.567,57.79 136.836,53.343 143.248,49.417 C148.017,46.499 152.519,43.743 154.96,43.275 C159.49,42.403 167.859,45.636 170.728,46.829 C172.277,48.891 173.304,51.256 173.222,53.583 C173.033,59.076 169.683,61.209 162.085,64.772 C155.144,68.027 142.109,70.262 141.974,70.283 C141.242,70.408 140.748,71.104 140.873,71.839 C140.998,72.572 141.693,73.068 142.427,72.943 C142.822,72.875 149.632,71.709 156.13,69.793 C152.798,73.448 147.837,78.929 145.662,81.539 L143.962,83.651 C140.28,88.293 133.424,96.938 126.979,98.869 C110.03,103.952 94.393,105.175 73.686,94.769 C73.465,94.388 73.067,94.123 72.598,94.095 C72.528,94.091 72.461,94.097 72.393,94.103 C72.194,94.001 71.998,93.904 71.799,93.798 C61.432,88.314 58.053,80.816 58.02,80.74 L57.745,80.109 L57.069,79.962 C56.248,79.784 53.872,79.185 52.733,78.534 C52.086,78.164 51.477,77.929 50.987,77.739 C50.329,77.482 50.01,77.344 49.944,77.181 C49.659,76.465 49.014,72.595 49.014,69.983 C49.014,69.406 49.045,68.89 49.122,68.482 C50.481,60.999 51.471,59.932 51.581,59.836" id="Fill-8" fill="#3EA447"></path>
            <path d="M21.592,127.802 C12.237,117.509 10.301,95.74 10.301,88.862 C10.301,87.861 10.342,87.182 10.407,86.892 C11.016,85.356 16.61,78.179 22.913,71.651 C30.42,63.877 35.014,60.957 36.667,60.819 C37.979,60.71 42.852,63.263 46.885,65.826 C46.748,66.495 46.608,67.216 46.465,68 C46.368,68.542 46.323,69.216 46.323,69.96 C46.323,72.974 47.016,77.123 47.44,78.183 C47.948,79.452 49.045,79.877 50.014,80.254 C50.461,80.428 50.924,80.608 51.395,80.877 C52.702,81.622 54.792,82.191 55.858,82.449 C56.854,84.363 60.432,90.276 68.768,95.192 C67.751,96.923 66.514,98.515 65.889,98.594 C65.649,98.625 65.559,98.594 65.536,98.586 C65.514,98.544 65.501,98.464 65.501,98.367 C65.501,98.286 65.51,98.195 65.526,98.123 L63.811,97.594 C61.901,102.647 59.372,106.401 58.473,106.283 C58.391,106.153 58.348,105.945 58.348,105.647 C58.348,103.607 60.196,97.907 62.772,92.215 L63.057,91.591 L62.53,91.152 C62.362,91.011 58.362,87.689 55.807,86.53 C51.143,84.409 45.118,81.976 42.895,82.42 C40.569,82.886 37.21,85.87 32.545,90.532 C30.87,92.209 25.348,97.889 24.666,100.616 C24.081,102.961 29.538,115.636 33.79,121.8 C37.208,126.757 41.448,130.996 43.725,133.272 C44.465,134.014 45.049,134.596 45.303,134.903 C45.922,135.645 46.733,135.927 47.512,135.968 C47.26,137.401 47.045,139.382 46.969,142.378 C42.987,141.394 30.577,137.684 21.592,127.802" id="Fill-9" fill="#3EA447"></path>
            <path d="M21.592,127.802 C12.237,117.509 10.301,95.74 10.301,88.862 C10.301,87.861 10.342,87.182 10.407,86.892 C11.016,85.356 16.61,78.179 22.913,71.651 C30.42,63.877 35.014,60.957 36.667,60.819 C37.979,60.71 42.852,63.263 46.885,65.826 C46.748,66.495 46.608,67.216 46.465,68 C46.368,68.542 46.323,69.216 46.323,69.96 C46.323,72.974 47.016,77.123 47.44,78.183 C47.948,79.452 49.045,79.877 50.014,80.254 C50.461,80.428 50.924,80.608 51.395,80.877 C52.702,81.622 54.792,82.191 55.858,82.449 C56.854,84.363 60.432,90.276 68.768,95.192 C67.751,96.923 66.514,98.515 65.889,98.594 C65.649,98.625 65.559,98.594 65.536,98.586 C65.514,98.544 65.501,98.464 65.501,98.367 C65.501,98.286 65.51,98.195 65.526,98.123 L63.811,97.594 C61.901,102.647 59.372,106.401 58.473,106.283 C58.391,106.153 58.348,105.945 58.348,105.647 C58.348,103.607 60.196,97.907 62.772,92.215 L63.057,91.591 L62.53,91.152 C62.362,91.011 58.362,87.689 55.807,86.53 C51.143,84.409 45.118,81.976 42.895,82.42 C40.569,82.886 37.21,85.87 32.545,90.532 C30.87,92.209 25.348,97.889 24.666,100.616 C24.081,102.961 29.538,115.636 33.79,121.8 C37.208,126.757 41.448,130.996 43.725,133.272 C44.465,134.014 45.049,134.596 45.303,134.903 C45.922,135.645 46.733,135.927 47.512,135.968 C47.26,137.401 47.045,139.382 46.969,142.378 C42.987,141.394 30.577,137.684 21.592,127.802" id="Fill-10" fill="#3EA447"></path>
            <path d="M57.248,117.496 C57.233,117.589 57.231,117.682 57.235,117.773 C56.93,118.161 56.639,118.547 56.364,118.927 C53.702,122.613 48.897,130.864 47.913,134.162 C47.489,134.199 47.004,134.134 46.688,133.753 C46.377,133.386 45.799,132.805 44.997,132.003 C42.76,129.765 38.596,125.601 35.272,120.778 C30.934,114.493 26.403,103.239 26.403,101.192 C26.403,101.138 26.407,101.09 26.415,101.048 C26.78,99.6 29.823,95.8 33.817,91.805 C36.145,89.478 40.987,84.636 43.249,84.183 C44.538,83.925 49.172,85.489 55.065,88.167 C56.889,88.997 59.698,91.182 60.852,92.106 C59.682,94.745 56.6,102.046 56.6,105.667 C56.6,106.204 56.67,106.659 56.821,107.005 C57.086,107.619 57.526,107.875 57.848,107.981 C58.604,108.233 59.358,107.999 60.09,107.454 C59.922,107.755 59.76,108.048 59.622,108.323 C58.196,111.181 57.286,117.239 57.248,117.496" id="Fill-11" fill="#3EA447"></path>
            <path d="M65.526,100.391 C65.126,100.398 64.733,100.578 64.473,100.924 C64.454,100.95 64.373,101.057 64.251,101.223 C64.413,100.867 64.563,100.516 64.71,100.182 C64.926,100.292 65.198,100.368 65.526,100.391" id="Fill-12" fill="#3EA447"></path>
            <path d="M32.1,170.003 C25.377,173.585 16.123,179.672 16.032,179.73 L15.981,179.763 L15.936,179.802 C10.313,184.258 4.282,187.882 2.727,187.766 C2.694,187.69 2.657,187.623 2.657,187.514 C2.657,185.804 6.606,179.972 10.45,176.718 C11.7,175.661 19.442,171.378 28.192,166.682 C28.528,166.638 28.819,166.471 29.026,166.239 C34.479,163.317 40.252,160.273 45.044,157.775 C45.506,157.537 45.77,157.065 45.77,156.581 C45.77,156.37 45.721,156.155 45.618,155.956 C45.274,155.297 44.46,155.041 43.799,155.384 C42.241,156.198 34.922,160.016 27.346,164.072 L20.6,164.944 L20.366,165.081 C16.635,167.249 12.655,169.013 11.184,169.194 C11.495,168.427 12.883,166.782 17.18,163.243 C19.809,161.078 33.891,157.108 42.715,154.971 C43.332,154.82 43.748,154.266 43.748,153.66 C43.748,153.555 43.735,153.447 43.71,153.341 C43.534,152.617 42.805,152.173 42.081,152.348 C40.319,152.773 28.038,155.792 20.567,158.64 C20.688,158.466 20.813,158.29 20.956,158.118 C21.586,157.413 26.344,155.52 32.42,153.835 C35.547,152.964 43.809,151.656 47.079,151.153 C47.09,151.476 47.106,151.805 47.12,152.144 C47.284,155.854 47.573,159.218 47.872,161.995 C45.551,163.136 37.758,166.982 32.1,170.003" id="Fill-13" fill="#3EA447"></path>
            <path d="M32.1,170.003 C25.377,173.585 16.123,179.672 16.032,179.73 L15.981,179.763 L15.936,179.802 C10.313,184.258 4.282,187.882 2.727,187.766 C2.694,187.69 2.657,187.623 2.657,187.514 C2.657,185.804 6.606,179.972 10.45,176.718 C11.7,175.661 19.442,171.378 28.192,166.682 C28.528,166.638 28.819,166.471 29.026,166.239 C34.479,163.317 40.252,160.273 45.044,157.775 C45.506,157.537 45.77,157.065 45.77,156.581 C45.77,156.37 45.721,156.155 45.618,155.956 C45.274,155.297 44.46,155.041 43.799,155.384 C42.241,156.198 34.922,160.016 27.346,164.072 L20.6,164.944 L20.366,165.081 C16.635,167.249 12.655,169.013 11.184,169.194 C11.495,168.427 12.883,166.782 17.18,163.243 C19.809,161.078 33.891,157.108 42.715,154.971 C43.332,154.82 43.748,154.266 43.748,153.66 C43.748,153.555 43.735,153.447 43.71,153.341 C43.534,152.617 42.805,152.173 42.081,152.348 C40.319,152.773 28.038,155.792 20.567,158.64 C20.688,158.466 20.813,158.29 20.956,158.118 C21.586,157.413 26.344,155.52 32.42,153.835 C35.547,152.964 43.809,151.656 47.079,151.153 C47.09,151.476 47.106,151.805 47.12,152.144 C47.284,155.854 47.573,159.218 47.872,161.995 C45.551,163.136 37.758,166.982 32.1,170.003" id="Fill-14" fill="#3EA447"></path>
            <path d="M168.316,175.337 C163.453,181.948 155.246,190.55 153.339,192.526 C151.958,192.487 148.759,192.47 147.126,193.081 L145.568,193.76 C142.958,194.948 141.277,195.524 140.531,195.492 C140.953,194.516 142.845,192.383 144.876,190.652 C145.187,190.384 145.349,190.007 145.349,189.624 C145.349,189.314 145.244,189.007 145.029,188.751 C144.544,188.182 143.695,188.118 143.126,188.598 C142.429,189.192 140.83,190.615 139.553,192.173 C138.815,191.951 137.594,191.722 135.999,191.88 C135.127,191.966 133.688,192.454 131.411,193.239 C129.608,193.861 126.29,195.007 124.417,195.3 C124.76,195 125.2,194.655 125.708,194.293 C126.014,194.204 126.272,194.015 126.444,193.766 C128.321,192.472 130.836,190.949 133.176,189.689 C133.629,189.442 133.883,188.978 133.883,188.501 C133.883,188.286 133.834,188.065 133.723,187.864 C133.37,187.207 132.553,186.96 131.897,187.313 C129.438,188.639 126.719,190.216 124.606,191.743 C123.489,191.921 120.852,192.399 118.172,193.291 L115.155,194.438 C113.729,195.007 110.836,196.157 109.153,196.483 C112.194,193.456 123.067,186.376 130.235,184.169 C138.754,181.551 145.416,180.858 145.486,180.851 L146.074,180.795 L146.429,180.319 C146.46,180.272 149.83,175.804 155.759,169.656 C161.74,163.456 166.91,158.504 166.962,158.454 L167.414,158.02 L166.927,150.209 C166.882,149.471 166.865,148.532 166.865,147.499 C166.865,143.325 167.148,137.614 167.15,137.542 L167.173,137.12 L163.576,131.364 C163.181,130.733 162.349,130.541 161.718,130.936 C161.308,131.191 161.083,131.632 161.083,132.081 C161.083,132.325 161.148,132.573 161.289,132.796 C161.289,132.796 162.601,134.891 163.542,136.397 L162.681,135.591 C162.136,135.081 161.285,135.11 160.773,135.653 C160.263,136.197 160.292,137.05 160.835,137.559 L164.312,140.819 C164.242,142.794 164.167,145.305 164.167,147.47 C164.167,148.565 164.187,149.569 164.234,150.364 C164.234,150.364 164.535,155.202 164.626,156.684 C164.599,156.696 164.57,156.702 164.542,156.716 C164.386,156.79 148.662,164.177 116.885,162.206 C86.883,160.343 70.501,155.748 68.428,155.138 C68.245,154.742 68.069,154.359 67.901,153.996 C65.829,149.477 63.713,140.722 63.176,138.425 C64.627,136.319 67.53,132.132 68.454,130.898 L74.02,128.114 C74.688,127.782 74.957,126.973 74.626,126.305 C74.291,125.64 73.481,125.372 72.817,125.703 L70.559,126.831 C70.721,126.415 70.833,126.108 70.868,126.015 C70.922,125.866 70.946,125.712 70.946,125.559 C70.946,125.007 70.602,124.487 70.051,124.292 C69.35,124.04 68.577,124.407 68.329,125.106 C67.919,126.243 67.071,128.301 66.52,128.991 C65.602,130.138 60.821,137.089 60.618,137.384 L60.284,137.87 L60.413,138.443 C60.516,138.899 62.944,149.661 65.448,155.122 C67.901,160.468 72.387,169.668 72.432,169.761 L72.698,170.306 L73.284,170.468 C73.346,170.487 79.817,172.29 88.153,176.018 C95.969,179.515 105.467,187.595 106.098,189.96 C105.01,190.101 102.01,187.61 100.668,186.491 C98.87,184.995 97.317,183.7 96.001,183.371 C93.295,182.696 90.637,183.037 90.139,183.112 C85.6,179.013 78.252,174.12 74.372,171.63 C73.745,171.227 72.911,171.41 72.508,172.037 C72.362,172.263 72.294,172.514 72.294,172.765 C72.294,173.208 72.514,173.642 72.913,173.901 C82.071,179.78 90.12,186.073 91.243,188.169 C90.424,188.382 88.93,187.35 87.098,185.983 C85.704,184.947 84.258,183.876 82.836,183.401 C79.717,182.36 75.784,181.887 74.873,181.786 C72.329,177.593 68.811,173.286 67.254,171.444 C66.774,170.877 65.924,170.805 65.354,171.288 C65.04,171.554 64.876,171.932 64.876,172.316 C64.876,172.624 64.981,172.932 65.194,173.186 C65.225,173.221 68.291,176.859 71.008,180.834 C74.655,186.161 75.126,188.325 75.126,189.083 C75.126,189.339 75.073,189.433 75.067,189.44 C75.067,189.44 75.049,189.458 74.987,189.479 C74.305,189.722 73.731,189.058 72.127,186.656 C70.844,184.73 69.245,182.341 66.667,180.071 C61.68,175.682 53.563,170.196 51.497,168.819 C51.188,166.941 50.188,160.391 49.815,152.024 C49.692,149.215 49.637,146.862 49.637,144.891 C49.637,139.178 50.075,136.608 50.45,135.102 C51.03,132.784 55.497,124.736 58.551,120.506 C61.366,116.609 66.43,111.747 66.481,111.7 C66.76,111.435 66.899,111.08 66.899,110.725 C66.899,110.388 66.774,110.054 66.526,109.792 C66.01,109.257 65.157,109.237 64.618,109.751 C64.493,109.872 62.741,111.553 60.711,113.74 C61.081,112.151 61.538,110.529 62.036,109.53 C63.315,106.973 66.596,102.587 66.629,102.543 C67.075,101.947 66.956,101.103 66.36,100.654 C66.165,100.509 65.944,100.429 65.717,100.4 C65.84,100.4 65.969,100.396 66.112,100.378 C67.702,100.179 69.354,97.785 70.344,96.075 C70.407,96.112 70.471,96.146 70.54,96.182 C70.751,96.294 70.957,96.395 71.169,96.504 C71.26,99.265 72.131,106.247 78.393,109.661 C78.729,109.847 79.073,110.019 79.413,110.195 C80.645,112.296 86.567,120.048 107.295,121.063 C130.483,122.2 145.798,109.598 146.439,109.061 C146.478,109.028 146.511,108.989 146.546,108.955 C151.935,107.145 155.271,105.692 155.333,105.667 C156.013,105.366 156.324,104.57 156.025,103.889 C155.726,103.208 154.929,102.897 154.248,103.197 C153.8,103.393 109.94,122.315 81.149,108.053 C81.047,107.985 80.94,107.929 80.825,107.889 C80.442,107.695 80.061,107.5 79.682,107.295 C75.571,105.048 74.352,100.657 73.998,97.919 C96.065,108.491 112.866,105.919 127.754,101.452 C134.807,99.335 141.552,91.022 145.728,85.768 C145.568,86.522 145.517,87.31 145.517,87.945 C145.517,88.256 145.527,88.519 145.542,88.735 C144.207,89.808 140.309,93.217 140.309,96.345 C140.309,96.352 140.309,96.361 140.309,96.369 C140.315,97.534 140.865,98.553 141.894,99.311 C142.8,99.978 143.859,100.22 145.041,100.031 C147.226,99.681 149.535,97.826 151.339,96.004 C151.353,96.339 151.382,96.674 151.482,97 C151.72,97.785 152.359,98.845 154.044,99.435 C157.582,100.674 161.003,95.274 165.335,88.435 C167.625,84.825 169.992,81.089 172.56,78.036 C179.494,69.803 189.261,68.146 191.726,69.283 C193.849,70.262 198.152,80.903 201.123,92.516 C202.421,97.588 206.591,114.593 205.822,120.499 C204.978,126.973 201.378,133.575 194.814,140.686 C188.701,147.311 181.865,147.911 179.322,147.882 L179.289,147.296 C179.265,146.819 179.253,146.278 179.253,145.693 C179.253,141.041 179.929,133.665 179.957,133.353 C180.033,132.793 181.033,125.225 181.033,119.601 C181.033,118.321 180.98,117.142 180.853,116.171 C180.119,110.532 176.259,107.339 176.095,107.207 C175.517,106.737 174.673,106.825 174.203,107.401 C173.996,107.649 173.9,107.953 173.9,108.251 C173.9,108.642 174.068,109.03 174.39,109.296 C174.423,109.323 177.587,111.979 178.177,116.518 C178.292,117.379 178.337,118.432 178.337,119.592 C178.337,125.094 177.294,132.929 177.281,133.023 L177.275,133.078 C177.242,133.43 176.556,140.843 176.556,145.688 C176.556,146.32 176.57,146.907 176.593,147.433 C176.593,147.433 176.917,153.227 177.113,156.716 C177.029,156.993 177.044,157.286 177.156,157.555 C177.21,158.491 177.246,159.143 177.251,159.272 C176.634,160.757 173.251,168.625 168.316,175.337" id="Fill-15" fill="#3EA447"></path>
            <path d="M86.352,113.068 C100.461,117.672 116.485,116.202 128.303,113.847 C131.375,113.235 134.299,112.537 137.018,111.815 C130.467,115.19 120.116,118.992 107.426,118.37 C96.544,117.837 90.086,115.382 86.352,113.068" id="Fill-16" fill="#3EA447"></path>
            <path d="M200.656,164.788 C201.994,165.961 203.833,168.843 204.427,169.852 L204.47,169.925 L204.523,169.99 C205.39,171.12 206.718,173.046 206.996,173.841 C207.029,173.995 207.044,174.247 207.044,174.585 C207.044,176.996 206.257,183.499 204.537,185.626 C204.335,185.873 204.136,186.027 204.017,186.027 C203.921,186.027 203.837,186.016 203.708,185.871 C202.683,184.696 202.74,180.368 203.105,177.666 L203.15,177.332 L203.031,177.011 C203.003,176.934 202.308,175.088 201.578,173.869 C201.232,173.272 200.464,169.903 199.951,167.126 L197.292,167.593 C197.296,167.618 197.722,170.2 197.722,171.641 C197.722,173.169 198.283,177.21 198.388,177.968 C197.916,183.356 196.351,192.395 194.111,194.18 C193.845,194.388 193.703,194.366 193.644,194.36 C193.31,194.31 193.082,194.163 192.882,193.848 C191.658,191.969 192.55,186.487 193.404,183.472 L193.474,183.213 L193.443,182.946 C193.425,182.788 192.976,179.073 192.158,175.29 C190.837,169.185 189.453,166.697 187.384,166.697 C186.074,166.697 184.333,167.479 180.22,176.831 C178.175,181.482 176.466,186.198 176.449,186.246 L176.425,186.313 L176.406,186.388 C174.519,194.227 170.884,202.749 168.685,202.448 C168.585,202.434 168.509,202.413 168.398,202.235 C166.386,198.972 172.154,182.113 174.048,176.575 C176.361,169.809 180.308,162.37 181.73,159.776 C183.49,160.234 185.707,160.673 188.308,161.06 C190.435,161.382 192.976,161.083 195.755,160.305 C196.824,161.304 199.253,163.56 200.656,164.788" id="Fill-17" fill="#3EA447"></path>
            <path d="M200.656,164.788 C201.994,165.961 203.833,168.843 204.427,169.852 L204.47,169.925 L204.523,169.99 C205.39,171.12 206.718,173.046 206.996,173.841 C207.029,173.995 207.044,174.247 207.044,174.585 C207.044,176.996 206.257,183.499 204.537,185.626 C204.335,185.873 204.136,186.027 204.017,186.027 C203.921,186.027 203.837,186.016 203.708,185.871 C202.683,184.696 202.74,180.368 203.105,177.666 L203.15,177.332 L203.031,177.011 C203.003,176.934 202.308,175.088 201.578,173.869 C201.232,173.272 200.464,169.903 199.951,167.126 L197.292,167.593 C197.296,167.618 197.722,170.2 197.722,171.641 C197.722,173.169 198.283,177.21 198.388,177.968 C197.916,183.356 196.351,192.395 194.111,194.18 C193.845,194.388 193.703,194.366 193.644,194.36 C193.31,194.31 193.082,194.163 192.882,193.848 C191.658,191.969 192.55,186.487 193.404,183.472 L193.474,183.213 L193.443,182.946 C193.425,182.788 192.976,179.073 192.158,175.29 C190.837,169.185 189.453,166.697 187.384,166.697 C186.074,166.697 184.333,167.479 180.22,176.831 C178.175,181.482 176.466,186.198 176.449,186.246 L176.425,186.313 L176.406,186.388 C174.519,194.227 170.884,202.749 168.685,202.448 C168.585,202.434 168.509,202.413 168.398,202.235 C166.386,198.972 172.154,182.113 174.048,176.575 C176.361,169.809 180.308,162.37 181.73,159.776 C183.49,160.234 185.707,160.673 188.308,161.06 C190.435,161.382 192.976,161.083 195.755,160.305 C196.824,161.304 199.253,163.56 200.656,164.788" id="Fill-18" fill="#3EA447"></path>
            <path d="M224.398,138.563 C214.41,148.977 197.294,159.681 188.708,158.393 C185.386,157.893 183.207,157.407 181.789,157.004 C181.777,156.998 181.769,156.989 181.759,156.985 C181.564,156.872 181.355,156.821 181.148,156.813 C180.507,156.61 180.074,156.44 179.789,156.307 L179.421,149.692 C182.39,149.728 189.591,148.996 196.136,141.905 C202.958,134.513 206.712,127.587 207.607,120.733 C208.396,114.679 204.552,98.67 202.863,92.072 C200.896,84.372 196.191,69.363 192.48,67.649 C189.175,66.125 178.664,67.999 171.185,76.878 C168.537,80.024 166.138,83.811 163.818,87.475 C160.38,92.897 156.828,98.505 154.636,97.739 C153.847,97.46 153.376,97.049 153.201,96.478 C153.144,96.282 153.117,96.07 153.117,95.852 C153.117,94.489 154.14,92.789 154.607,92.163 C154.611,92.158 154.623,92.143 154.625,92.139 L153.171,91.079 C153.167,91.082 153.16,91.094 153.158,91.098 L153.158,91.096 C151.857,92.923 147.816,97.767 144.755,98.256 C144.058,98.366 143.472,98.239 142.96,97.864 C142.382,97.437 142.109,96.957 142.105,96.359 C142.091,94.095 145.646,90.903 147.017,89.862 L147.423,89.556 L147.367,89.047 C147.367,89.03 147.167,87.176 147.562,85.797 C147.886,84.661 148.587,82.767 148.921,81.872 C152.998,77.169 161.308,68.131 161.402,68.031 C161.416,68.018 161.421,68.001 161.435,67.987 C162.06,67.739 162.664,67.48 163.23,67.215 C168.333,64.822 173.208,62.533 175.099,57.779 C175.828,58.228 176.746,58.798 177.419,59.248 C177.943,59.598 178.472,60.394 178.833,61.079 C176.228,63.1 174.054,65.069 173.89,65.221 C173.337,65.722 173.298,66.574 173.798,67.125 C174.298,67.677 175.154,67.717 175.703,67.216 C177.708,65.391 183.562,60.429 186.482,59.397 C189.273,58.414 197.765,55.416 203.589,56.313 C208.636,57.09 220.296,68.259 224.945,74.862 C236.632,91.469 239.085,99.498 239.085,103.307 C239.085,111.589 234.527,128.003 224.398,138.563" id="Fill-19" fill="#3EA447"></path>
            <path d="M224.398,138.563 C214.41,148.977 197.294,159.681 188.708,158.393 C185.386,157.893 183.207,157.407 181.789,157.004 C181.777,156.998 181.769,156.989 181.759,156.985 C181.564,156.872 181.355,156.821 181.148,156.813 C180.507,156.61 180.074,156.44 179.789,156.307 L179.421,149.692 C182.39,149.728 189.591,148.996 196.136,141.905 C202.958,134.513 206.712,127.587 207.607,120.733 C208.396,114.679 204.552,98.67 202.863,92.072 C200.896,84.372 196.191,69.363 192.48,67.649 C189.175,66.125 178.664,67.999 171.185,76.878 C168.537,80.024 166.138,83.811 163.818,87.475 C160.38,92.897 156.828,98.505 154.636,97.739 C153.847,97.46 153.376,97.049 153.201,96.478 C153.144,96.282 153.117,96.07 153.117,95.852 C153.117,94.489 154.14,92.789 154.607,92.163 C154.611,92.158 154.623,92.143 154.625,92.139 L153.171,91.079 C153.167,91.082 153.16,91.094 153.158,91.098 L153.158,91.096 C151.857,92.923 147.816,97.767 144.755,98.256 C144.058,98.366 143.472,98.239 142.96,97.864 C142.382,97.437 142.109,96.957 142.105,96.359 C142.091,94.095 145.646,90.903 147.017,89.862 L147.423,89.556 L147.367,89.047 C147.367,89.03 147.167,87.176 147.562,85.797 C147.886,84.661 148.587,82.767 148.921,81.872 C152.998,77.169 161.308,68.131 161.402,68.031 C161.416,68.018 161.421,68.001 161.435,67.987 C162.06,67.739 162.664,67.48 163.23,67.215 C168.333,64.822 173.208,62.533 175.099,57.779 C175.828,58.228 176.746,58.798 177.419,59.248 C177.943,59.598 178.472,60.394 178.833,61.079 C176.228,63.1 174.054,65.069 173.89,65.221 C173.337,65.722 173.298,66.574 173.798,67.125 C174.298,67.677 175.154,67.717 175.703,67.216 C177.708,65.391 183.562,60.429 186.482,59.397 C189.273,58.414 197.765,55.416 203.589,56.313 C208.636,57.09 220.296,68.259 224.945,74.862 C236.632,91.469 239.085,99.498 239.085,103.307 C239.085,111.589 234.527,128.003 224.398,138.563" id="Fill-20" fill="#3EA447"></path>
            <path d="M105.745,30.854 L105.874,30.807 L106.383,30.408 C114.786,23.743 119.227,22.344 121.473,22.344 C126.538,22.344 131.436,26.856 131.963,27.995 C130.997,29.618 120.42,38.509 115.872,37.942 C111.713,37.423 108.434,35.339 106.858,34.341 L106.053,33.853 L105.297,33.548 C104.268,33.17 103.905,32.947 103.905,32.446 C103.905,31.763 105.168,31.067 105.745,30.854 Z M105.745,30.854 L105.874,30.807 L106.383,30.408 C114.786,23.743 119.227,22.344 121.473,22.344 C126.538,22.344 131.436,26.856 131.963,27.995 C130.997,29.618 120.42,38.509 115.872,37.942 C111.713,37.423 108.434,35.339 106.858,34.341 L106.053,33.853 L105.297,33.548 C104.268,33.17 103.905,32.947 103.905,32.446 C103.905,31.763 105.168,31.067 105.745,30.854 Z M104.692,35.196 L105.268,35.427 L105.918,35.822 C107.469,36.809 111.102,39.116 115.655,39.684 C119.881,40.213 127.12,34.964 130.727,31.778 C133.77,29.092 133.77,28.391 133.77,28.053 C133.77,26.132 127.518,20.587 121.473,20.587 C117.799,20.587 112.354,23.428 105.29,29.031 C105.29,29.031 105.102,29.18 105,29.261 C104.393,29.501 102.149,30.525 102.149,32.446 C102.149,34.263 103.741,34.848 104.692,35.196 L104.692,35.196 Z" id="Fill-21" fill="#FFFFFF"></path>
            <path d="M31.805,68.265 C35.044,66.086 37.36,65.787 37.743,66.035 C37.745,66.049 37.748,66.06 37.748,66.075 C37.748,66.611 36.563,68.586 33.436,70.69 C30.198,72.869 27.879,73.168 27.499,72.92 C27.495,72.906 27.491,72.895 27.491,72.879 C27.491,72.343 28.678,70.368 31.805,68.265 Z M27.29,74.729 C28.872,75.039 31.678,74.04 34.438,72.182 C37.2,70.323 39.184,68.1 39.495,66.52 C39.633,65.802 39.434,65.311 39.243,65.024 C37.991,63.165 33.991,64.629 30.801,66.773 C28.04,68.63 26.055,70.853 25.747,72.435 C25.715,72.604 25.7,72.758 25.7,72.901 C25.7,73.372 25.852,73.712 26.001,73.932 C26.192,74.22 26.573,74.588 27.29,74.729 L27.29,74.729 Z" id="Fill-22" fill="#1A1918"></path>
            <path d="M23.432,79.493 C23.34,80.045 22.748,80.961 21.633,81.763 C20.518,82.566 19.461,82.833 18.911,82.743 C18.768,82.72 18.694,82.678 18.67,82.648 C18.649,82.618 18.633,82.532 18.657,82.39 C18.747,81.839 19.336,80.922 20.454,80.12 C22.01,79.001 23.264,79.025 23.417,79.237 C23.43,79.257 23.444,79.3 23.444,79.368 C23.444,79.402 23.44,79.445 23.432,79.493 Z M24.876,78.185 C23.942,76.886 21.588,77.091 19.403,78.66 C18.012,79.66 17.071,80.946 16.881,82.099 C16.784,82.707 16.897,83.26 17.211,83.698 C17.526,84.136 18.012,84.42 18.62,84.517 C19.774,84.706 21.293,84.222 22.684,83.224 C24.075,82.223 25.018,80.938 25.206,79.784 C25.305,79.177 25.194,78.624 24.876,78.185 L24.876,78.185 Z" id="Fill-23" fill="#1A1918"></path>
            <path d="M163.882,80.469 C162.431,82.323 160.566,83.634 159.126,83.808 C158.654,83.866 158.281,83.791 158.017,83.585 C157.755,83.379 157.593,83.034 157.537,82.561 C157.359,81.124 158.183,78.996 159.632,77.142 C161.775,74.408 164.498,73.241 165.498,74.027 C165.832,74.287 166.001,74.781 166.001,75.428 C166.001,76.728 165.312,78.641 163.882,80.469 Z M166.607,72.611 C164.621,71.057 160.937,72.562 158.216,76.035 C156.462,78.279 155.517,80.864 155.75,82.78 C155.865,83.73 156.267,84.498 156.91,85.001 C157.554,85.504 158.394,85.71 159.345,85.593 C161.259,85.361 163.544,83.821 165.298,81.577 C168.017,78.102 168.591,74.163 166.607,72.611 L166.607,72.611 Z" id="Fill-24" fill="#1A1918"></path>
            <path d="M169.273,71.384 C168.773,71.567 167.947,71.034 167.56,69.977 C167.433,69.634 167.378,69.306 167.378,69.009 C167.378,68.391 167.619,67.921 167.957,67.796 C168.457,67.613 169.281,68.146 169.671,69.204 C170.058,70.26 169.769,71.201 169.273,71.384 Z M167.337,66.108 C165.8,66.672 165.156,68.642 165.871,70.595 C166.589,72.549 168.353,73.636 169.892,73.073 C171.429,72.509 172.074,70.538 171.359,68.584 C170.64,66.63 168.876,65.545 167.337,66.108 L167.337,66.108 Z" id="Fill-25" fill="#1A1918"></path>
            <path d="M226.244,103.499 C226.076,103.557 225.875,103.488 225.738,103.421 C225.134,103.124 224.531,102.31 224.201,101.346 C223.669,99.789 224.023,98.557 224.501,98.395 C224.667,98.336 224.867,98.407 225.005,98.473 C225.609,98.77 226.212,99.584 226.541,100.548 C226.726,101.088 226.8,101.593 226.8,102.029 C226.8,102.831 226.544,103.397 226.244,103.499 Z M225.8,96.862 C225.162,96.547 224.513,96.491 223.917,96.693 C222.31,97.243 221.685,99.542 222.498,101.927 C222.99,103.36 223.902,104.522 224.945,105.036 C225.58,105.347 226.23,105.405 226.824,105.201 C228.433,104.65 229.058,102.353 228.242,99.967 C227.753,98.533 226.843,97.371 225.8,96.862 L225.8,96.862 Z" id="Fill-26" fill="#1A1918"></path>
            <path d="M231.23,99.101 C230.81,98.852 229.847,97.713 229.123,95.493 C228.699,94.182 228.562,93.121 228.562,92.38 C228.562,91.829 228.64,91.497 228.728,91.33 C229.15,91.579 230.115,92.72 230.833,94.938 C231.261,96.25 231.398,97.31 231.398,98.05 C231.398,98.603 231.318,98.935 231.23,99.101 Z M232.544,94.381 C231.628,91.562 229.912,88.975 228.138,89.55 C226.367,90.127 226.496,93.23 227.414,96.05 C228.003,97.864 229.115,100.047 230.474,100.737 C231.05,101.032 231.521,100.977 231.822,100.88 C232.119,100.784 232.533,100.548 232.826,99.971 C233.517,98.615 233.134,96.194 232.544,94.381 L232.544,94.381 Z" id="Fill-27" fill="#CCD692"></path>
            <path d="M222.298,84.558 C221.927,84.76 221.455,84.779 220.886,84.614 C219.244,84.129 217.32,82.242 215.994,79.806 C213.96,76.083 214.054,72.667 215.408,71.93 C215.779,71.728 216.251,71.709 216.818,71.876 C218.462,72.359 220.386,74.248 221.714,76.684 C223.042,79.12 223.589,81.758 223.105,83.405 C222.941,83.969 222.667,84.357 222.298,84.558 Z M224.832,83.912 C225.453,81.8 224.865,78.699 223.294,75.822 C221.724,72.945 219.437,70.772 217.324,70.15 C216.3,69.848 215.339,69.918 214.548,70.351 C212.058,71.709 212,76.24 214.412,80.666 C215.984,83.544 218.271,85.716 220.382,86.339 C221.406,86.638 222.367,86.571 223.158,86.138 C223.953,85.706 224.531,84.936 224.832,83.912 L224.832,83.912 Z" id="Fill-28" fill="#1A1918"></path>
            <path d="M51.528,59.831 C52.084,59.368 54.364,58.258 56.709,57.194 C56.561,57.573 56.424,57.959 56.319,58.326 L55.993,59.276 C55.502,60.622 54.833,62.465 56.381,63.76 C57.635,64.803 61.077,64.707 70.842,64.276 L78.344,63.966 C93.079,63.43 112.836,62.209 123.274,59.442 C129.514,57.784 136.784,53.337 143.197,49.413 C147.962,46.495 152.468,43.739 154.908,43.27 C159.437,42.399 167.806,45.632 170.677,46.827 C172.224,48.887 173.251,51.252 173.169,53.58 C172.98,59.072 169.632,61.207 162.033,64.77 C155.091,68.022 142.056,70.258 141.927,70.278 C141.189,70.406 140.697,71.1 140.82,71.834 C140.945,72.568 141.642,73.064 142.376,72.94 C142.771,72.872 149.58,71.704 156.082,69.787 C152.746,73.443 147.785,78.924 145.609,81.536 L143.912,83.645 C140.229,88.29 133.37,96.931 126.926,98.865 C109.979,103.949 94.342,105.172 73.631,94.765 C73.415,94.386 73.014,94.119 72.545,94.091 C72.477,94.087 72.411,94.093 72.342,94.099 C72.143,93.997 71.948,93.9 71.751,93.796 C61.379,88.31 58.001,80.811 57.969,80.738 L57.692,80.105 L57.016,79.957 C56.196,79.779 53.819,79.181 52.682,78.53 C52.034,78.162 51.426,77.926 50.938,77.735 C50.276,77.479 49.958,77.34 49.893,77.178 C49.606,76.462 48.961,72.591 48.961,69.98 C48.961,69.402 48.995,68.886 49.069,68.478 C50.428,60.996 51.42,59.928 51.528,59.831" id="Fill-29" fill="#D8D959"></path>
            <path d="M168.089,175.329 C163.228,181.943 155.021,190.544 153.117,192.519 C151.734,192.477 148.535,192.463 146.9,193.077 L145.343,193.751 C142.734,194.941 141.05,195.516 140.305,195.483 C140.728,194.503 142.619,192.376 144.65,190.645 C144.964,190.375 145.123,189.997 145.123,189.616 C145.123,189.305 145.017,188.998 144.802,188.744 C144.32,188.177 143.468,188.104 142.9,188.591 C142.205,189.184 140.605,190.606 139.327,192.163 C138.59,191.944 137.37,191.713 135.774,191.871 C134.901,191.958 133.461,192.445 131.186,193.23 C129.383,193.852 126.065,194.997 124.194,195.292 C124.536,194.991 124.977,194.651 125.483,194.28 C125.79,194.195 126.047,194.007 126.221,193.757 C128.092,192.463 130.612,190.94 132.952,189.679 C133.403,189.438 133.661,188.97 133.661,188.49 C133.661,188.278 133.608,188.056 133.499,187.854 C133.145,187.2 132.331,186.953 131.672,187.304 C129.213,188.632 126.497,190.206 124.381,191.736 C123.262,191.912 120.625,192.389 117.95,193.284 L114.928,194.431 C113.502,195 110.61,196.149 108.928,196.474 C111.967,193.447 122.842,186.37 130.012,184.163 C138.53,181.541 145.193,180.848 145.259,180.843 L145.847,180.786 L146.201,180.309 C146.236,180.265 149.605,175.798 155.537,169.648 C161.515,163.446 166.685,158.495 166.738,158.448 L167.189,158.013 L166.701,150.2 C166.658,149.462 166.64,148.523 166.64,147.489 C166.64,143.317 166.921,137.605 166.927,137.534 L166.947,137.111 L163.351,131.356 C162.957,130.725 162.123,130.533 161.494,130.927 C161.083,131.184 160.859,131.623 160.859,132.073 C160.859,132.317 160.925,132.566 161.066,132.787 C161.066,132.787 162.376,134.882 163.316,136.389 L162.457,135.583 C161.912,135.073 161.06,135.102 160.548,135.645 C160.039,136.187 160.068,137.043 160.609,137.55 L164.087,140.811 C164.017,142.786 163.943,145.297 163.943,147.461 C163.943,148.557 163.962,149.561 164.009,150.357 C164.009,150.357 164.312,155.194 164.402,156.677 C164.375,156.686 164.345,156.696 164.318,156.706 C164.164,156.781 148.437,164.167 116.661,162.194 C86.657,160.332 70.276,155.739 68.202,155.128 C68.018,154.734 67.842,154.351 67.676,153.989 C65.604,149.469 63.489,140.713 62.954,138.417 C64.403,136.311 67.303,132.124 68.231,130.891 L73.797,128.108 C74.463,127.774 74.733,126.964 74.399,126.298 C74.067,125.632 73.256,125.362 72.59,125.696 L70.335,126.822 C70.495,126.408 70.608,126.1 70.641,126.005 C70.696,125.857 70.721,125.703 70.721,125.552 C70.721,124.999 70.377,124.479 69.827,124.283 C69.126,124.032 68.354,124.397 68.102,125.099 C67.696,126.234 66.848,128.292 66.297,128.981 C65.377,130.129 60.596,137.081 60.395,137.376 L60.061,137.862 L60.188,138.436 C60.29,138.891 62.721,149.651 65.223,155.112 C67.676,160.458 72.163,169.658 72.206,169.753 L72.471,170.298 L73.059,170.46 C73.126,170.477 79.592,172.282 87.928,176.012 C95.743,179.508 105.243,187.587 105.872,189.952 C104.788,190.093 101.786,187.601 100.444,186.482 C98.647,184.986 97.092,183.692 95.774,183.362 C93.069,182.688 90.413,183.028 89.915,183.104 C85.374,179.004 78.028,174.112 74.149,171.622 C73.52,171.22 72.684,171.401 72.282,172.028 C72.137,172.254 72.071,172.507 72.071,172.755 C72.071,173.201 72.29,173.635 72.688,173.89 C81.846,179.771 89.895,186.063 91.02,188.161 C90.2,188.374 88.704,187.339 86.872,185.977 C85.477,184.938 84.036,183.865 82.61,183.392 C79.491,182.349 75.559,181.877 74.649,181.777 C72.102,177.583 68.586,173.278 67.032,171.436 C66.549,170.868 65.7,170.797 65.129,171.278 C64.815,171.544 64.651,171.925 64.651,172.307 C64.651,172.614 64.756,172.927 64.971,173.179 C65.002,173.212 68.065,176.85 70.784,180.825 C74.432,186.155 74.899,188.315 74.899,189.073 C74.899,189.329 74.846,189.425 74.844,189.431 C74.842,189.431 74.823,189.448 74.762,189.471 C74.081,189.714 73.51,189.05 71.901,186.647 C70.62,184.723 69.02,182.33 66.442,180.061 C61.456,175.673 53.338,170.187 51.272,168.81 C50.963,166.933 49.961,160.384 49.588,152.018 C49.465,149.206 49.413,146.854 49.413,144.882 C49.413,139.169 49.85,136.599 50.225,135.095 C50.805,132.776 55.272,124.727 58.329,120.498 C61.143,116.6 66.207,111.741 66.26,111.691 C66.536,111.426 66.674,111.071 66.674,110.716 C66.674,110.38 66.549,110.046 66.301,109.784 C65.786,109.247 64.932,109.227 64.395,109.742 C64.27,109.861 62.516,111.545 60.489,113.733 C60.854,112.143 61.313,110.521 61.811,109.522 C63.09,106.966 66.373,102.577 66.405,102.535 C66.852,101.94 66.731,101.093 66.135,100.647 C65.94,100.5 65.717,100.422 65.493,100.394 C65.618,100.394 65.748,100.387 65.887,100.37 C67.477,100.171 69.131,97.777 70.12,96.068 C70.184,96.104 70.248,96.139 70.315,96.176 C70.528,96.287 70.733,96.387 70.944,96.496 C71.034,99.255 71.907,106.237 78.169,109.654 C78.504,109.837 78.848,110.011 79.19,110.186 C80.42,112.288 86.34,120.038 107.071,121.056 C130.258,122.192 145.574,109.591 146.216,109.055 C146.253,109.02 146.285,108.983 146.32,108.946 C151.71,107.138 155.044,105.684 155.107,105.657 C155.789,105.358 156.099,104.563 155.802,103.881 C155.5,103.2 154.705,102.888 154.023,103.187 C153.574,103.384 109.713,122.305 80.924,108.046 C80.823,107.977 80.715,107.922 80.602,107.882 C80.217,107.687 79.836,107.491 79.46,107.285 C75.344,105.041 74.129,100.65 73.774,97.909 C95.838,108.482 112.639,105.911 127.53,101.444 C134.584,99.328 141.33,91.013 145.503,85.76 C145.343,86.515 145.292,87.3 145.292,87.937 C145.292,88.248 145.304,88.511 145.316,88.726 C143.982,89.799 140.083,93.208 140.083,96.337 C140.083,96.345 140.083,96.352 140.083,96.36 C140.092,97.527 140.638,98.542 141.669,99.303 C142.576,99.971 143.634,100.212 144.818,100.023 C147.001,99.673 149.312,97.819 151.113,95.994 C151.126,96.33 151.16,96.667 151.257,96.992 C151.496,97.777 152.134,98.837 153.818,99.427 C157.357,100.666 160.781,95.264 165.111,88.428 C167.398,84.815 169.765,81.08 172.339,78.028 C179.269,69.796 189.039,68.136 191.501,69.274 C193.625,70.254 197.927,80.894 200.9,92.508 C202.195,97.579 206.367,114.584 205.599,120.493 C204.753,126.964 201.154,133.567 194.593,140.679 C188.474,147.302 181.638,147.903 179.097,147.872 L179.064,147.29 C179.041,146.809 179.031,146.272 179.031,145.684 C179.031,141.031 179.703,133.657 179.732,133.346 C179.808,132.784 180.808,125.216 180.808,119.594 C180.808,118.313 180.755,117.134 180.626,116.163 C179.892,110.524 176.035,107.331 175.871,107.198 C175.294,106.729 174.451,106.817 173.98,107.391 C173.773,107.643 173.675,107.943 173.675,108.245 C173.675,108.634 173.841,109.022 174.164,109.286 C174.199,109.315 177.361,111.973 177.953,116.512 C178.066,117.37 178.111,118.425 178.111,119.582 C178.111,125.085 177.068,132.921 177.054,133.016 L177.05,133.07 C177.017,133.423 176.333,140.832 176.333,145.68 C176.333,146.312 176.345,146.901 176.371,147.424 C176.371,147.424 176.693,153.219 176.886,156.706 C176.806,156.984 176.822,157.276 176.933,157.546 C176.986,158.482 177.021,159.133 177.027,159.264 C176.41,160.749 173.025,168.616 168.089,175.329" id="Fill-30" fill="#D8D959"></path>
            <path d="M57.292,117.362 C57.278,117.455 57.274,117.547 57.28,117.637 C56.975,118.027 56.684,118.413 56.409,118.79 C53.747,122.479 48.944,130.729 47.957,134.025 C47.534,134.062 47.047,133.997 46.731,133.618 C46.424,133.248 45.844,132.668 45.042,131.866 C42.805,129.629 38.639,125.465 35.315,120.644 C30.979,114.358 26.448,103.104 26.448,101.057 C26.448,101.003 26.45,100.955 26.457,100.914 C26.823,99.464 29.868,95.665 33.862,91.67 C36.19,89.343 41.032,84.501 43.294,84.049 C44.581,83.79 49.217,85.354 55.108,88.031 C56.936,88.863 59.745,91.046 60.895,91.972 C59.727,94.611 56.647,101.912 56.647,105.533 C56.647,106.069 56.713,106.524 56.866,106.871 C57.133,107.482 57.571,107.739 57.891,107.847 C58.645,108.098 59.405,107.865 60.135,107.319 C59.967,107.621 59.807,107.914 59.668,108.189 C58.241,111.045 57.331,117.104 57.292,117.362" id="Fill-31" fill="#D8D959"></path>
            <path d="M85.774,113.185 C99.881,117.788 115.907,116.318 127.727,113.964 C130.797,113.35 133.721,112.654 136.438,111.934 C129.889,115.305 119.536,119.109 106.85,118.487 C95.963,117.954 89.508,115.499 85.774,113.185" id="Fill-32" fill="#CCD692"></path>
            <path d="M31.682,68.245 C34.92,66.065 37.239,65.765 37.62,66.014 C37.624,66.028 37.625,66.038 37.625,66.055 C37.625,66.591 36.44,68.565 33.313,70.668 C30.077,72.847 27.758,73.146 27.377,72.899 C27.372,72.884 27.37,72.873 27.37,72.857 C27.37,72.322 28.553,70.347 31.682,68.245" id="Fill-33" fill="#CCD692"></path>
            <path d="M23.309,79.471 C23.219,80.023 22.629,80.939 21.514,81.74 C20.395,82.544 19.34,82.811 18.788,82.722 C18.647,82.698 18.571,82.655 18.549,82.626 C18.528,82.596 18.512,82.511 18.534,82.368 C18.626,81.818 19.215,80.9 20.331,80.098 C21.889,78.981 23.143,79.003 23.295,79.213 C23.309,79.234 23.321,79.279 23.321,79.345 C23.321,79.38 23.317,79.422 23.309,79.471" id="Fill-34" fill="#CCD692"></path>
            <path d="M163.761,80.447 C162.308,82.301 160.443,83.612 159.005,83.786 C158.533,83.845 158.158,83.769 157.898,83.565 C157.634,83.358 157.47,83.014 157.414,82.54 C157.238,81.102 158.062,78.976 159.513,77.121 C161.652,74.386 164.375,73.22 165.378,74.005 C165.71,74.265 165.878,74.761 165.878,75.408 C165.878,76.707 165.191,78.619 163.761,80.447" id="Fill-35" fill="#CCD692"></path>
            <path d="M169.15,71.363 C168.652,71.545 167.826,71.012 167.437,69.954 C167.312,69.614 167.255,69.283 167.255,68.987 C167.255,68.369 167.496,67.899 167.833,67.774 C168.333,67.592 169.162,68.124 169.548,69.18 C169.935,70.239 169.65,71.179 169.15,71.363" id="Fill-36" fill="#CCD692"></path>
            <path d="M226.121,103.478 C225.953,103.536 225.755,103.466 225.615,103.399 C225.011,103.102 224.408,102.289 224.08,101.325 C223.546,99.767 223.9,98.536 224.376,98.373 C224.546,98.314 224.746,98.384 224.884,98.453 C225.488,98.748 226.091,99.562 226.421,100.526 C226.603,101.066 226.679,101.572 226.679,102.007 C226.679,102.81 226.423,103.375 226.121,103.478" id="Fill-37" fill="#CCD692"></path>
            <path d="M230.714,94.914 C231.138,96.228 231.277,97.288 231.277,98.028" id="Fill-38" fill="#CCD692"></path>
            <path d="M222.175,84.537 C221.806,84.74 221.332,84.758 220.767,84.591 C219.121,84.107 217.199,82.221 215.869,79.784 C213.839,76.063 213.933,72.645 215.287,71.908 C215.658,71.706 216.13,71.687 216.695,71.854 C218.339,72.338 220.263,74.225 221.593,76.661 C222.923,79.099 223.468,81.737 222.986,83.383 C222.818,83.947 222.546,84.335 222.175,84.537" id="Fill-39" fill="#CCD692"></path>
            <path d="M231.044,99.326 C230.623,99.076 229.658,97.937 228.939,95.719 C228.511,94.407 228.375,93.345 228.375,92.604 C228.375,92.053 228.453,91.722 228.541,91.553 C228.962,91.803 229.927,92.944 230.65,95.162 C231.074,96.473 231.21,97.534 231.21,98.273 C231.21,98.827 231.132,99.157 231.044,99.326" id="Fill-40" fill="#CCD692"></path>
            <path d="M127.141,0.43 C127.141,0.43 116.577,1.779 110.506,3.802 C104.438,5.825 99.493,9.196 99.493,9.196 C99.493,9.196 97.469,13.692 97.469,15.49 C97.469,17.288 97.92,18.861 97.92,18.861 C97.92,18.861 104.663,13.017 109.833,9.646 C115.002,6.274 127.141,0.43 127.141,0.43" id="Fill-41" fill="#1A1918"></path>
            <path d="M71.169,32.124 C71.169,32.124 72.071,30.101 72.294,28.751 C72.52,27.404 72.294,25.381 72.294,25.381 C72.294,25.381 69.372,22.459 66.225,21.11 C63.079,19.761 58.584,20.21 58.584,20.21 C58.584,20.21 63.977,23.807 65.551,25.605 C67.123,27.404 71.169,32.124 71.169,32.124" id="Fill-42" fill="#1A1918"></path>
            <path d="M73.166,59.21 L74.571,58.087 C74.085,57.48 72.389,55.502 70.946,55.502 L69.823,55.502 L69.823,57.3 L70.946,57.3 C71.311,57.315 72.391,58.244 73.166,59.21" id="Fill-43" fill="#1A1918"></path>
            <path d="M88.704,57.709 C89.885,57.129 91.332,56.5 92.186,56.393 C92.481,56.357 92.706,56.387 92.815,56.481 C92.936,56.584 92.971,56.799 92.973,56.866 L94.772,56.851 C94.772,56.742 94.752,55.792 94.008,55.136 C93.655,54.824 93.01,54.479 91.961,54.609 C90.047,54.848 86.623,56.749 86.241,56.966 L83.248,58.649 L88.704,58.649 C88.704,58.649 88.704,58.178 88.704,57.709" id="Fill-44" fill="#1A1918"></path>
            <g id="Group-48" transform="translate(0.000000, 8.000000)">
                <mask id="mask-2" fill="white">
                    <use xlink:href="#path-1"></use>
                </mask>
                <g id="Clip-46"></g>
                <path d="M55.733,60.386 C56.262,60.452 57.274,60.577 57.274,60.577 C57.274,60.577 57.465,60.425 57.547,60.361 C57.661,60.287 60.348,58.678 77.733,57.841 C84.21,57.528 91.104,57.405 97.772,57.285 C110.713,57.052 122.938,56.834 132.67,55.358 C144.919,53.502 156.058,45.932 159.96,43.035 C159.96,43.556 159.96,44.13 159.96,44.13 L166.253,44.13 L160.835,40.067 L160.291,40.512 C160.156,40.62 146.812,51.397 132.401,53.58 C122.788,55.037 110.62,55.257 97.741,55.489 C91.059,55.607 84.151,55.731 77.645,56.044 C62.432,56.778 58.063,58.108 56.835,58.711 C56.43,58.661 54.692,58.444 54.692,58.444 L53.282,61.261 L54.891,62.065 C54.891,62.065 55.413,61.02 55.733,60.386" id="Fill-45" fill="#1A1918" mask="url(#mask-2)"></path>
                <path d="M224.398,130.412 C214.41,140.825 197.294,151.53 188.708,150.241 C185.386,149.745 183.207,149.253 181.789,148.852 C181.777,148.847 181.769,148.838 181.759,148.833 C181.564,148.722 181.355,148.67 181.148,148.661 C180.507,148.458 180.074,148.288 179.789,148.155 L179.421,141.54 C182.39,141.577 189.591,140.845 196.136,133.753 C202.958,126.359 206.712,119.436 207.607,112.579 C208.396,106.525 204.552,90.518 202.863,83.918 C200.896,76.22 196.191,61.211 192.48,59.498 C189.175,57.971 178.664,59.847 171.185,68.726 C168.537,71.872 166.138,75.66 163.818,79.321 C160.38,84.745 156.828,90.353 154.636,89.587 C153.847,89.31 153.376,88.897 153.201,88.326 C153.144,88.13 153.117,87.918 153.117,87.699 C153.117,86.337 154.14,84.636 154.607,84.01 C154.611,84.006 154.623,83.99 154.625,83.987 L153.171,82.927 C153.167,82.93 153.16,82.942 153.158,82.947 C151.857,84.771 147.816,89.615 144.755,90.104 C144.058,90.215 143.472,90.087 142.96,89.712 C142.382,89.284 142.109,88.807 142.105,88.206 C142.091,85.943 145.646,82.75 147.017,81.71 L147.423,81.403 L147.367,80.895 C147.367,80.878 147.167,79.024 147.562,77.645 C147.886,76.509 148.587,74.615 148.921,73.72 C152.998,69.014 161.308,59.979 161.402,59.879 C161.416,59.864 161.421,59.849 161.435,59.834 C162.06,59.584 162.664,59.328 163.23,59.062 C168.333,56.67 173.208,54.383 175.099,49.626 C175.828,50.076 176.746,50.646 177.419,51.096 C177.943,51.447 178.472,52.241 178.833,52.928 C176.228,54.946 174.054,56.917 173.89,57.068 C173.337,57.569 173.298,58.422 173.798,58.973 C174.298,59.524 175.154,59.565 175.703,59.064 C177.708,57.24 183.562,52.277 186.482,51.245 C189.273,50.261 197.765,47.264 203.589,48.159 C208.636,48.938 220.296,60.107 224.945,66.71 C236.632,83.317 239.085,91.346 239.085,95.156 C239.085,103.437 234.527,119.852 224.398,130.412 Z M200.656,156.636 C201.994,157.805 203.833,160.688 204.427,161.7 L204.47,161.772 L204.523,161.839 C205.39,162.97 206.718,164.893 206.996,165.686 C207.029,165.843 207.044,166.093 207.044,166.43 C207.044,168.845 206.257,175.351 204.537,177.473 C204.335,177.722 204.136,177.876 204.017,177.876 C203.921,177.876 203.837,177.864 203.708,177.72 C202.683,176.544 202.74,172.214 203.105,169.514 L203.15,169.179 L203.031,168.859 C203.003,168.781 202.308,166.931 201.578,165.719 C201.232,165.116 200.464,161.749 199.951,158.972 L197.292,159.44 C197.296,159.466 197.722,162.046 197.722,163.488 C197.722,165.016 198.283,169.058 198.388,169.815 C197.916,175.202 196.351,184.244 194.111,186.028 C193.845,186.237 193.703,186.215 193.644,186.206 C193.31,186.159 193.082,186.007 192.882,185.696 C191.658,183.817 192.55,178.335 193.404,175.323 L193.474,175.061 L193.443,174.794 C193.425,174.639 192.976,170.921 192.158,167.138 C190.837,161.034 189.453,158.542 187.384,158.542 C186.074,158.542 184.333,159.327 180.22,168.679 C178.175,173.333 176.466,178.047 176.449,178.095 L176.425,178.161 L176.406,178.235 C174.519,186.071 170.884,194.597 168.685,194.294 C168.585,194.283 168.509,194.26 168.398,194.086 C166.386,190.82 172.154,173.964 174.048,168.421 C176.361,161.658 180.308,154.219 181.73,151.624 C183.49,152.084 185.707,152.519 188.308,152.911 C190.435,153.229 192.976,152.93 195.755,152.154 C196.824,153.151 199.253,155.409 200.656,156.636 Z M86.352,104.915 C100.461,109.52 116.485,108.05 128.303,105.694 C131.375,105.083 134.299,104.386 137.018,103.663 C130.467,107.037 120.116,110.841 107.426,110.218 C96.544,109.684 90.086,107.229 86.352,104.915 Z M168.316,167.185 C163.453,173.797 155.246,182.398 153.339,184.374 C151.958,184.333 148.759,184.317 147.126,184.93 L145.568,185.608 C142.958,186.796 141.277,187.373 140.531,187.341 C140.953,186.36 142.845,184.231 144.876,182.501 C145.187,182.231 145.349,181.854 145.349,181.472 C145.349,181.163 145.244,180.85 145.029,180.598 C144.544,180.033 143.695,179.962 143.126,180.447 C142.429,181.039 140.83,182.464 139.553,184.02 C138.815,183.8 137.594,183.567 135.999,183.727 C135.127,183.814 133.688,184.302 131.411,185.085 C129.608,185.71 126.29,186.854 124.417,187.147 C124.76,186.846 125.2,186.503 125.708,186.139 C126.014,186.052 126.272,185.864 126.444,185.614 C128.321,184.319 130.836,182.798 133.176,181.538 C133.629,181.295 133.883,180.831 133.883,180.349 C133.883,180.13 133.834,179.913 133.723,179.712 C133.37,179.055 132.553,178.809 131.897,179.161 C129.438,180.486 126.719,182.064 124.606,183.593 C123.489,183.768 120.852,184.246 118.172,185.139 L115.155,186.286 C113.729,186.854 110.836,188.006 109.153,188.331 C112.194,185.304 123.067,178.224 130.235,176.016 C138.754,173.399 145.416,172.708 145.486,172.7 L146.074,172.639 L146.429,172.167 C146.46,172.12 149.83,167.655 155.759,161.502 C161.74,155.305 166.91,150.352 166.962,150.305 L167.414,149.87 L166.927,142.054 C166.882,141.319 166.865,140.38 166.865,139.344 C166.865,135.174 167.148,129.462 167.15,129.389 L167.173,128.967 L163.576,123.213 C163.181,122.582 162.349,122.389 161.718,122.784 C161.308,123.04 161.083,123.479 161.083,123.929 C161.083,124.173 161.148,124.419 161.289,124.641 C161.289,124.641 162.601,126.739 163.542,128.247 L162.681,127.439 C162.136,126.93 161.285,126.957 160.773,127.501 C160.263,128.044 160.292,128.898 160.835,129.408 L164.312,132.667 C164.242,134.642 164.167,137.155 164.167,139.317 C164.167,140.413 164.187,141.417 164.234,142.214 C164.234,142.214 164.535,147.051 164.626,148.533 C164.599,148.544 164.57,148.55 164.542,148.562 C164.386,148.638 148.662,156.024 116.885,154.054 C86.883,152.188 70.501,147.597 68.428,146.985 C68.245,146.591 68.069,146.208 67.901,145.843 C65.829,141.325 63.713,132.571 63.176,130.27 C64.627,128.165 67.53,123.98 68.454,122.747 L74.02,119.964 C74.688,119.631 74.957,118.819 74.626,118.154 C74.291,117.489 73.481,117.218 72.817,117.552 L70.559,118.677 C70.721,118.264 70.833,117.957 70.868,117.864 C70.922,117.712 70.946,117.559 70.946,117.408 C70.946,116.855 70.602,116.336 70.051,116.139 C69.35,115.888 68.577,116.254 68.329,116.954 C67.919,118.091 67.071,120.149 66.52,120.838 C65.602,121.985 60.821,128.938 60.618,129.232 L60.284,129.718 L60.413,130.293 C60.516,130.748 62.944,141.508 65.448,146.97 C67.901,152.315 72.387,161.516 72.432,161.608 L72.698,162.155 L73.284,162.316 C73.346,162.336 79.817,164.137 88.153,167.868 C95.969,171.364 105.467,179.443 106.098,181.806 C105.01,181.95 102.01,179.458 100.668,178.339 C98.87,176.843 97.317,175.549 96.001,175.22 C93.295,174.545 90.637,174.886 90.139,174.961 C85.6,170.86 78.252,165.97 74.372,163.477 C73.745,163.076 72.911,163.259 72.508,163.886 C72.362,164.11 72.294,164.362 72.294,164.611 C72.294,165.055 72.514,165.489 72.913,165.75 C82.071,171.628 90.12,177.921 91.243,180.017 C90.424,180.23 88.93,179.198 87.098,177.834 C85.704,176.796 84.258,175.724 82.836,175.249 C79.717,174.209 75.784,173.735 74.873,173.634 C72.329,169.44 68.811,165.134 67.254,163.293 C66.774,162.722 65.924,162.653 65.354,163.133 C65.04,163.401 64.876,163.781 64.876,164.165 C64.876,164.472 64.981,164.78 65.194,165.034 C65.225,165.07 68.291,168.708 71.008,172.682 C74.655,178.01 75.126,180.174 75.126,180.93 C75.126,181.186 75.073,181.282 75.067,181.286 C75.067,181.286 75.049,181.304 74.987,181.327 C74.305,181.575 73.731,180.907 72.127,178.502 C70.844,176.579 69.245,174.189 66.667,171.919 C61.68,167.53 53.563,162.044 51.497,160.665 C51.188,158.792 50.188,152.239 49.815,143.873 C49.692,141.061 49.637,138.712 49.637,136.737 C49.637,131.026 50.075,128.455 50.45,126.951 C51.03,124.634 55.497,116.583 58.551,112.356 C61.366,108.458 66.43,103.597 66.481,103.547 C66.76,103.281 66.899,102.929 66.899,102.573 C66.899,102.236 66.774,101.902 66.526,101.639 C66.01,101.102 65.157,101.085 64.618,101.598 C64.493,101.718 62.741,103.399 60.711,105.591 C61.081,103.999 61.538,102.378 62.036,101.379 C63.315,98.823 66.596,94.435 66.629,94.39 C67.075,93.795 66.956,92.95 66.36,92.502 C66.165,92.355 65.944,92.278 65.717,92.25 C65.84,92.25 65.969,92.244 66.112,92.226 C67.702,92.028 69.354,89.632 70.344,87.924 C70.407,87.96 70.471,87.996 70.54,88.03 C70.751,88.142 70.957,88.244 71.169,88.352 C71.26,91.111 72.131,98.095 78.393,101.509 C78.729,101.694 79.073,101.868 79.413,102.044 C80.645,104.142 86.567,111.895 107.295,112.911 C130.483,114.048 145.798,101.447 146.439,100.91 C146.478,100.877 146.511,100.839 146.546,100.804 C151.935,98.995 155.271,97.541 155.333,97.514 C156.013,97.214 156.324,96.419 156.025,95.738 C155.726,95.055 154.929,94.747 154.248,95.044 C153.8,95.239 109.94,114.162 81.149,99.901 C81.047,99.834 80.94,99.777 80.825,99.738 C80.442,99.544 80.061,99.348 79.682,99.143 C75.571,96.895 74.352,92.505 73.998,89.766 C96.065,100.339 112.866,97.767 127.754,93.299 C134.807,91.183 141.552,82.87 145.728,77.616 C145.568,78.371 145.517,79.156 145.517,79.791 C145.517,80.104 145.527,80.366 145.542,80.583 C144.207,81.656 140.309,85.063 140.309,88.194 C140.309,88.201 140.309,88.208 140.309,88.218 C140.315,89.382 140.865,90.401 141.894,91.159 C142.8,91.826 143.859,92.069 145.041,91.878 C147.226,91.529 149.535,89.675 151.339,87.851 C151.353,88.185 151.382,88.522 151.482,88.848 C151.72,89.634 152.359,90.694 154.044,91.282 C157.582,92.522 161.003,87.12 165.335,80.283 C167.625,76.671 169.992,72.937 172.56,69.884 C179.494,61.651 189.261,59.992 191.726,61.131 C193.849,62.111 198.152,72.751 201.123,84.365 C202.421,89.435 206.591,106.44 205.822,112.347 C204.978,118.819 201.378,125.423 194.814,132.535 C188.701,139.159 181.865,139.76 179.322,139.727 L179.289,139.146 C179.265,138.667 179.253,138.126 179.253,137.543 C179.253,132.89 179.929,125.512 179.957,125.202 C180.033,124.641 181.033,117.072 181.033,111.45 C181.033,110.171 180.98,108.991 180.853,108.019 C180.119,102.38 176.259,99.185 176.095,99.054 C175.517,98.587 174.673,98.674 174.203,99.249 C173.996,99.497 173.9,99.8 173.9,100.1 C173.9,100.491 174.068,100.879 174.39,101.145 C174.423,101.171 177.587,103.829 178.177,108.367 C178.292,109.225 178.337,110.278 178.337,111.44 C178.337,116.942 177.294,124.776 177.281,124.872 L177.275,124.927 C177.242,125.28 176.556,132.688 176.556,137.537 C176.556,138.169 176.57,138.756 176.593,139.282 C176.593,139.282 176.917,145.075 177.113,148.562 C177.029,148.839 177.044,149.132 177.156,149.403 C177.21,150.339 177.246,150.989 177.251,151.12 C176.634,152.604 173.251,160.472 168.316,167.185 Z M32.1,161.848 C25.377,165.433 16.123,171.517 16.032,171.579 L15.981,171.612 L15.936,171.649 C10.313,176.106 4.282,179.729 2.727,179.614 C2.694,179.543 2.657,179.472 2.657,179.362 C2.657,177.652 6.606,171.82 10.45,168.564 C11.7,167.51 19.442,163.225 28.192,158.531 C28.528,158.485 28.819,158.322 29.026,158.085 C34.479,155.166 40.252,152.122 45.044,149.626 C45.506,149.384 45.77,148.915 45.77,148.427 C45.77,148.217 45.721,148.004 45.618,147.805 C45.274,147.146 44.46,146.888 43.799,147.231 C42.241,148.043 34.922,151.864 27.346,155.921 L20.6,156.792 L20.366,156.927 C16.635,159.095 12.655,160.86 11.184,161.042 C11.495,160.276 12.883,158.629 17.18,155.088 C19.809,152.927 33.891,148.956 42.715,146.817 C43.332,146.669 43.748,146.118 43.748,145.507 C43.748,145.403 43.735,145.296 43.71,145.189 C43.534,144.464 42.805,144.02 42.081,144.196 C40.319,144.624 28.038,147.638 20.567,150.487 C20.688,150.313 20.813,150.137 20.956,149.966 C21.586,149.262 26.344,147.368 32.42,145.682 C35.547,144.814 43.809,143.503 47.079,143.001 C47.09,143.328 47.106,143.656 47.12,143.995 C47.284,147.702 47.573,151.065 47.872,153.846 C45.551,154.983 37.758,158.831 32.1,161.848 Z M65.526,92.24 C65.126,92.246 64.733,92.428 64.473,92.772 C64.454,92.797 64.373,92.906 64.251,93.072 C64.413,92.715 64.563,92.365 64.71,92.028 C64.926,92.14 65.198,92.216 65.526,92.24 Z M57.248,109.345 C57.233,109.437 57.231,109.53 57.235,109.622 C56.93,110.01 56.639,110.395 56.364,110.774 C53.702,114.462 48.897,122.714 47.913,126.011 C47.489,126.048 47.004,125.981 46.688,125.6 C46.377,125.231 45.799,124.651 44.997,123.85 C42.76,121.612 38.596,117.45 35.272,112.627 C30.934,106.341 26.403,95.087 26.403,93.04 C26.403,92.986 26.407,92.938 26.415,92.896 C26.78,91.449 29.823,87.648 33.817,83.653 C36.145,81.325 40.987,76.484 43.249,76.032 C44.538,75.773 49.172,77.337 55.065,80.015 C56.889,80.845 59.698,83.029 60.852,83.955 C59.682,86.594 56.6,93.894 56.6,97.515 C56.6,98.053 56.67,98.507 56.821,98.853 C57.086,99.466 57.526,99.723 57.848,99.829 C58.604,100.081 59.358,99.847 60.09,99.303 C59.922,99.604 59.76,99.896 59.622,100.171 C58.196,103.028 57.286,109.087 57.248,109.345 Z M21.592,119.648 C12.237,109.357 10.301,87.591 10.301,80.709 C10.301,79.709 10.342,79.03 10.407,78.74 C11.016,77.204 16.61,70.026 22.913,63.498 C30.42,55.725 35.014,52.805 36.667,52.667 C37.979,52.557 42.852,55.111 46.885,57.674 C46.748,58.342 46.608,59.063 46.465,59.848 C46.368,60.39 46.323,61.064 46.323,61.809 C46.323,64.821 47.016,68.971 47.44,70.032 C47.948,71.3 49.045,71.725 50.014,72.1 C50.461,72.275 50.924,72.455 51.395,72.725 C52.702,73.47 54.792,74.039 55.858,74.297 C56.854,76.212 60.432,82.125 68.768,87.04 C67.751,88.772 66.514,90.363 65.889,90.442 C65.649,90.47 65.559,90.442 65.536,90.434 C65.514,90.392 65.501,90.312 65.501,90.215 C65.501,90.134 65.51,90.043 65.526,89.971 L63.811,89.442 C61.901,94.493 59.372,98.249 58.473,98.132 C58.391,98.001 58.348,97.792 58.348,97.494 C58.348,95.454 60.196,89.755 62.772,84.063 L63.057,83.439 L62.53,83.001 C62.362,82.86 58.362,79.538 55.807,78.377 C51.143,76.257 45.118,73.824 42.895,74.268 C40.569,74.733 37.21,77.719 32.545,82.381 C30.87,84.056 25.348,89.738 24.666,92.465 C24.081,94.81 29.538,107.481 33.79,113.648 C37.208,118.605 41.448,122.845 43.725,125.122 C44.465,125.86 45.049,126.445 45.303,126.752 C45.922,127.493 46.733,127.776 47.512,127.816 C47.26,129.247 47.045,131.229 46.969,134.223 C42.987,133.243 30.577,129.532 21.592,119.648 Z M51.581,51.683 C52.135,51.22 54.415,50.109 56.762,49.046 C56.612,49.425 56.475,49.81 56.368,50.176 L56.045,51.128 C55.555,52.474 54.881,54.318 56.434,55.61 C57.688,56.655 61.127,56.557 70.893,56.128 L78.395,55.818 C93.131,55.283 112.887,54.062 123.327,51.293 C129.567,49.637 136.836,45.189 143.248,41.265 C148.017,38.348 152.519,35.592 154.96,35.123 C159.49,34.251 167.859,37.485 170.728,38.677 C172.277,40.738 173.304,43.104 173.222,45.431 C173.033,50.924 169.683,53.057 162.085,56.62 C155.144,59.875 142.109,62.108 141.974,62.131 C141.242,62.256 140.748,62.952 140.873,63.687 C140.998,64.42 141.693,64.914 142.427,64.791 C142.822,64.723 149.632,63.557 156.13,61.64 C152.798,65.296 147.837,70.775 145.662,73.386 L143.962,75.498 C140.28,80.14 133.424,88.786 126.979,90.716 C110.03,95.803 94.393,97.026 73.686,86.616 C73.465,86.237 73.067,85.971 72.598,85.943 C72.528,85.939 72.461,85.945 72.393,85.952 C72.194,85.848 71.998,85.752 71.799,85.646 C61.432,80.162 58.053,72.664 58.02,72.588 L57.745,71.957 L57.069,71.807 C56.248,71.632 53.872,71.034 52.733,70.383 C52.086,70.012 51.477,69.776 50.987,69.587 C50.329,69.33 50.01,69.19 49.944,69.03 C49.659,68.313 49.014,64.443 49.014,61.831 C49.014,61.254 49.045,60.736 49.122,60.33 C50.481,52.848 51.471,51.781 51.581,51.683 Z M60.208,47.535 L64.098,44.131 L64.196,43.985 C64.247,43.911 69.35,36.399 74.575,31.391 C76.831,29.232 78.997,27.204 80.952,25.413 C80.825,25.741 80.717,26.064 80.641,26.374 C77.723,37.816 77.69,52.08 77.69,52.221 L79.487,52.221 C79.487,52.082 79.524,38.037 82.381,26.818 C82.811,25.134 84.254,22.977 85.438,21.411 C87.538,19.598 89.02,18.433 89.541,18.223 C90.948,17.83 95.028,17.83 96.571,17.83 C97.534,17.83 98.987,17.898 100.092,17.958 C99.639,18.558 99.127,19.171 98.719,19.62 C98.219,20.172 98.258,21.024 98.811,21.525 C99.364,22.026 100.215,21.985 100.717,21.434 C101.122,20.985 103.18,18.673 103.694,17.132 C104.262,15.43 109.606,0.594 122.29,4.07 C128.235,5.701 132.116,8.574 133.813,12.607 C136.844,19.806 132.081,28.551 132.03,28.639 C131.672,29.29 131.905,30.111 132.557,30.472 C133.208,30.834 134.028,30.601 134.389,29.949 C134.508,29.737 136.024,26.964 136.907,23.152 C138.764,23.923 144.363,26.261 146.546,27.354 C147.919,28.041 149.841,29.453 151.312,30.601 C148.607,31.367 146.869,32.302 146.722,32.382 C146.074,32.74 145.832,33.557 146.191,34.21 C146.546,34.865 147.367,35.104 148.017,34.748 C148.06,34.725 150.648,33.343 154.41,32.662 C154.517,32.656 154.625,32.638 154.726,32.607 C156.923,32.239 159.49,32.119 162.175,32.64 C163.898,32.974 165.945,34.072 167.806,35.622 C163.859,34.221 158.281,32.652 154.623,33.356 C151.857,33.887 147.437,36.595 142.306,39.731 C136,43.592 128.85,47.967 122.866,49.554 C112.586,52.28 92.973,53.489 78.331,54.02 L70.815,54.33 C64.155,54.624 58.405,54.879 57.585,54.228 C57.063,53.793 57.239,53.105 57.735,51.746 L58.098,50.67 C58.362,49.755 58.879,48.649 59.231,47.951 C59.501,47.836 59.76,47.723 60.008,47.619 L60.208,47.535 Z M63.655,26.124 C68.221,20.777 75.512,22.97 78.362,24.121 C76.325,26.001 74.329,27.891 72.707,29.444 C68.547,33.432 64.586,38.764 62.86,41.187 C61.825,40.079 60.336,38.068 60.045,35.398 C59.721,32.428 60.936,29.307 63.655,26.124 Z M227.148,65.157 C222.787,58.957 210.375,46.475 203.998,45.494 C197.505,44.495 188.533,47.662 185.585,48.701 C184.292,49.159 182.656,50.157 181.021,51.305 C180.548,50.481 179.833,49.465 178.914,48.851 C177.951,48.207 176.562,47.356 175.804,46.897 C175.863,46.456 175.904,46 175.917,45.525 C176.177,38.057 168.195,31.064 162.689,29.993 C159.806,29.432 157.072,29.511 154.707,29.865 C153.429,28.81 150.042,26.087 147.75,24.94 C145.134,23.633 138.141,20.742 137.379,20.428 C137.706,17.635 137.547,14.537 136.305,11.577 C134.268,6.732 129.793,3.33 123.004,1.468 C111.288,-1.743 104.137,8.264 101.473,15.337 C100.547,15.281 98.065,15.132 96.571,15.132 C93.588,15.132 90.329,15.192 88.782,15.634 C87.604,15.971 84.198,18.828 80.54,22.131 C76.262,20.017 67.135,17.896 61.604,24.372 C58.372,28.156 56.946,31.977 57.368,35.73 C57.768,39.281 59.735,41.848 61.057,43.208 C60.149,44.003 58.938,45.063 58.756,45.221 C57.141,45.908 51.221,48.471 49.852,49.612 C49.235,50.126 48.454,51.239 47.522,54.887 C44.473,52.991 38.893,49.775 36.44,49.978 C32.444,50.312 25.034,57.418 20.971,61.625 C15.063,67.745 8.696,75.617 7.868,77.823 C6.92,80.347 8.293,109.028 19.596,121.464 C29.684,132.558 43.411,136.21 46.94,136.995 C46.942,137.999 46.958,139.092 46.989,140.286 C43.922,140.755 35.114,142.134 31.698,143.082 C29.096,143.804 20.493,146.312 18.883,148.24 C17.592,149.79 17.071,151.581 17.049,151.655 C17.012,151.784 17.002,151.913 17.004,152.04 C16.364,152.376 15.84,152.7 15.465,153.007 C11.034,156.66 8.596,159.033 8.415,161.132 C8.354,161.845 8.557,162.496 9.004,163.017 C9.381,163.459 10.338,164.549 15.014,162.66 C11.823,164.462 9.45,165.879 8.709,166.507 C8.588,166.606 -2.839,177.138 0.668,181.429 C2.09,183.166 5.1,182.35 10.735,178.697 C14.143,176.489 17.237,174.059 17.561,173.804 C18.069,173.47 26.916,167.67 33.368,164.227 C38.426,161.532 45.21,158.161 48.202,156.686 C48.596,159.796 48.93,161.671 48.938,161.71 L49.041,162.276 L49.524,162.592 C49.622,162.657 59.401,169.115 64.885,173.943 C67.198,175.98 68.688,178.21 69.883,180.001 C71.551,182.501 73.127,184.855 75.893,183.868 C76.809,183.542 77.448,182.849 77.696,181.926 C78.053,180.6 77.502,178.686 76.485,176.57 C78.038,176.808 80.194,177.21 81.983,177.807 C82.998,178.146 84.264,179.087 85.487,179.998 C87.977,181.847 91.077,184.153 93.477,181.753 C93.924,181.305 94.127,180.698 94.057,180.046 C93.985,179.352 93.473,178.482 92.657,177.511 C93.463,177.522 94.407,177.602 95.344,177.839 C96.065,178.016 97.661,179.346 98.946,180.415 C101.975,182.936 105.413,185.803 107.944,183.901 C108.532,183.461 108.858,182.791 108.858,182.034 C108.858,181.936 108.85,181.837 108.838,181.733 C108.354,177.411 96.465,168.632 89.254,165.406 C82.067,162.189 76.379,160.413 74.594,159.887 C73.883,158.43 71.823,154.18 69.94,150.202 C75.698,151.701 91.198,155.159 116.717,156.745 C138.905,158.12 153.289,155.1 160.417,152.934 C158.542,154.8 156.248,157.108 153.818,159.631 C148.794,164.841 145.64,168.779 144.626,170.083 C142.806,170.305 136.881,171.151 129.442,173.44 C121.965,175.744 106.811,184.999 105.784,188.54 C105.733,188.725 105.704,188.915 105.704,189.098 C105.704,189.514 105.844,189.905 106.112,190.22 C107.647,192.011 110.928,190.875 116.153,188.791 L119.026,187.698 C119.725,187.464 120.426,187.263 121.098,187.091 C121.024,187.256 120.971,187.419 120.95,187.575 C120.86,188.173 121.049,188.754 121.469,189.171 C122.995,190.699 126.577,189.61 132.292,187.636 C133.95,187.063 135.665,186.471 136.268,186.412 C136.959,186.343 137.542,186.376 138.004,186.442 C137.862,186.79 137.768,187.124 137.743,187.438 C137.682,188.242 137.987,188.78 138.254,189.095 C139.989,191.115 143.701,189.422 146.687,188.062 L148.072,187.455 C149.187,187.036 152.193,187.011 153.824,187.091 L154.429,187.124 L154.855,186.685 C155.263,186.271 164.876,176.416 170.488,168.786 C170.876,168.253 171.255,167.718 171.625,167.182 C171.583,167.305 171.537,167.427 171.496,167.548 C166.65,181.72 163.878,191.893 166.105,195.502 C166.617,196.333 167.384,196.843 168.32,196.97 C173.996,197.742 177.917,183.472 179.009,178.946 C181.792,171.262 185.697,162.657 187.365,161.355 C188.445,162.523 189.957,168.552 190.732,174.859 C190.447,175.919 189.595,179.337 189.595,182.535 C189.595,184.302 189.857,185.996 190.623,187.171 C191.244,188.128 192.158,188.72 193.261,188.878 C194.146,189.003 195.021,188.747 195.789,188.138 C198.189,186.227 199.582,180.514 200.335,175.909 C200.539,177.327 200.935,178.64 201.677,179.491 C202.298,180.2 203.105,180.575 204.017,180.575 C204.753,180.575 205.841,180.286 206.832,178.912 C208.843,176.116 209.71,169.646 209.71,166.473 C209.71,165.716 209.664,165.147 209.568,164.86 C209.085,163.415 207.183,160.878 206.71,160.26 C206.451,159.823 204.294,156.237 202.433,154.606 C201.437,153.737 199.869,152.292 198.683,151.194 C207.878,147.772 218.871,140.072 226.345,132.279 C236.992,121.18 241.781,103.888 241.781,95.156 C241.781,89.048 236.859,78.954 227.148,65.157 L227.148,65.157 Z" id="Fill-47" fill="#1A1918" mask="url(#mask-2)"></path>
            </g>
            <path d="M105.422,30.946 L105.555,30.896 L106.077,30.488 C114.676,23.666 119.221,22.233 121.522,22.233 C126.708,22.233 131.721,26.85 132.262,28.017 C131.272,29.681 120.446,38.782 115.79,38.2 C111.53,37.668 108.174,35.538 106.563,34.512 L105.741,34.016 L104.963,33.701 C103.911,33.316 103.538,33.088 103.538,32.574 C103.538,31.876 104.834,31.162 105.422,30.946 Z M104.344,35.388 L104.934,35.626 L105.6,36.031 C107.188,37.04 110.907,39.402 115.567,39.984 C119.895,40.525 127.303,35.151 130.997,31.891 C134.11,29.141 134.11,28.424 134.11,28.078 C134.11,26.11 127.711,20.435 121.522,20.435 C117.762,20.435 112.188,23.344 104.958,29.078 C104.958,29.078 104.764,29.23 104.661,29.313 C104.04,29.561 101.741,30.607 101.741,32.574 C101.741,34.434 103.372,35.033 104.344,35.388 L104.344,35.388 Z" id="Fill-49" fill="#1A1918"></path>
            <path d="M31.805,68.114 C35.044,65.934 37.36,65.635 37.743,65.882 C37.745,65.895 37.748,65.908 37.748,65.924 C37.748,66.461 36.563,68.434 33.436,70.538 C30.198,72.717 27.879,73.016 27.499,72.767 C27.495,72.754 27.491,72.743 27.491,72.727 C27.491,72.19 28.678,70.217 31.805,68.114 Z M27.29,74.577 C28.872,74.887 31.678,73.888 34.438,72.03 C37.2,70.171 39.184,67.95 39.495,66.368 C39.633,65.65 39.434,65.158 39.243,64.872 C37.991,63.014 33.991,64.476 30.801,66.622 C28.04,68.478 26.055,70.701 25.747,72.283 C25.715,72.452 25.7,72.606 25.7,72.749 C25.7,73.22 25.852,73.56 26.001,73.78 C26.192,74.066 26.573,74.436 27.29,74.577 L27.29,74.577 Z" id="Fill-50" fill="#1A1918"></path>
            <path d="M23.432,79.341 C23.34,79.892 22.748,80.809 21.633,81.612 C20.518,82.414 19.461,82.68 18.911,82.592 C18.768,82.568 18.694,82.526 18.67,82.496 C18.649,82.466 18.633,82.379 18.657,82.238 C18.747,81.687 19.336,80.771 20.454,79.968 C22.01,78.849 23.264,78.873 23.417,79.085 C23.43,79.103 23.444,79.147 23.444,79.216 C23.444,79.25 23.44,79.291 23.432,79.341 Z M24.876,78.034 C23.942,76.735 21.588,76.936 19.403,78.508 C18.012,79.508 17.071,80.793 16.881,81.948 C16.784,82.553 16.897,83.108 17.211,83.544 C17.526,83.982 18.012,84.267 18.62,84.365 C19.774,84.554 21.293,84.071 22.684,83.071 C24.075,82.071 25.018,80.786 25.206,79.632 C25.305,79.025 25.194,78.472 24.876,78.034 L24.876,78.034 Z" id="Fill-51" fill="#1A1918"></path>
            <path d="M163.882,80.317 C162.431,82.171 160.566,83.481 159.126,83.657 C158.654,83.714 158.281,83.639 158.017,83.433 C157.755,83.227 157.593,82.885 157.537,82.41 C157.359,80.972 158.183,78.845 159.632,76.992 C161.775,74.256 164.498,73.09 165.498,73.875 C165.832,74.135 166.001,74.63 166.001,75.277 C166.001,76.579 165.312,78.488 163.882,80.317 Z M166.607,72.459 C164.621,70.904 160.937,72.409 158.216,75.883 C156.462,78.127 155.517,80.712 155.75,82.628 C155.865,83.578 156.267,84.347 156.91,84.849 C157.554,85.352 158.394,85.557 159.345,85.441 C161.259,85.209 163.544,83.669 165.298,81.425 C168.017,77.951 168.591,74.011 166.607,72.459 L166.607,72.459 Z" id="Fill-52" fill="#1A1918"></path>
            <path d="M169.273,71.232 C168.773,71.415 167.947,70.883 167.56,69.824 C167.433,69.482 167.378,69.153 167.378,68.857 C167.378,68.239 167.619,67.769 167.957,67.644 C168.457,67.461 169.281,67.994 169.671,69.05 C170.058,70.108 169.769,71.05 169.273,71.232 Z M167.337,65.956 C165.8,66.52 165.156,68.491 165.871,70.443 C166.589,72.396 168.353,73.485 169.892,72.921 C171.429,72.357 172.074,70.385 171.359,68.432 C170.64,66.478 168.876,65.392 167.337,65.956 L167.337,65.956 Z" id="Fill-53" fill="#1A1918"></path>
            <path d="M226.244,103.348 C226.076,103.404 225.875,103.336 225.738,103.269 C225.134,102.972 224.531,102.158 224.201,101.194 C223.669,99.637 224.023,98.406 224.501,98.243 C224.667,98.184 224.867,98.255 225.005,98.321 C225.609,98.618 226.212,99.432 226.541,100.396 C226.726,100.936 226.8,101.441 226.8,101.877 C226.8,102.68 226.544,103.245 226.244,103.348 Z M225.8,96.708 C225.162,96.395 224.513,96.337 223.917,96.541 C222.31,97.092 221.685,99.39 222.498,101.773 C222.99,103.208 223.902,104.371 224.945,104.883 C225.58,105.194 226.23,105.251 226.824,105.048 C228.433,104.499 229.058,102.2 228.242,99.815 C227.753,98.38 226.843,97.22 225.8,96.708 L225.8,96.708 Z" id="Fill-54" fill="#1A1918"></path>
            <path d="M231.23,99.086 C230.81,98.837 229.847,97.697 229.123,95.478 C228.699,94.165 228.562,93.105 228.562,92.365 C228.562,91.814 228.64,91.482 228.728,91.315 C229.15,91.564 230.115,92.704 230.833,94.923 C231.261,96.235 231.398,97.295 231.398,98.035 C231.398,98.588 231.318,98.917 231.23,99.086 Z M232.544,94.229 C231.628,91.41 229.912,88.824 228.138,89.398 C226.367,89.975 226.496,93.077 227.414,95.897 C228.003,97.71 229.115,99.894 230.474,100.585 C231.05,100.878 231.521,100.826 231.822,100.728 C232.119,100.633 232.533,100.396 232.826,99.819 C233.517,98.463 233.134,96.042 232.544,94.229 L232.544,94.229 Z" id="Fill-55" fill="#1A1918"></path>
            <path d="M222.298,84.407 C221.927,84.608 221.455,84.628 220.886,84.461 C219.244,83.977 217.32,82.09 215.994,79.654 C213.96,75.93 214.054,72.515 215.408,71.777 C215.779,71.576 216.251,71.557 216.818,71.723 C218.462,72.207 220.386,74.094 221.714,76.531 C223.042,78.969 223.589,81.606 223.105,83.252 C222.941,83.816 222.667,84.205 222.298,84.407 Z M224.832,83.761 C225.453,81.648 224.865,78.548 223.294,75.67 C221.724,72.793 219.437,70.619 217.324,69.998 C216.3,69.698 215.339,69.766 214.548,70.199 C212.058,71.557 212,76.089 214.412,80.513 C215.984,83.392 218.271,85.564 220.382,86.186 C221.406,86.488 222.367,86.418 223.158,85.986 C223.953,85.553 224.531,84.784 224.832,83.761 L224.832,83.761 Z" id="Fill-56" fill="#1A1918"></path>
            <path d="M123.559,21.899 C121.917,21.687 119.901,21.602 117.999,22.009 C115.768,22.488 113.366,23.814 111.606,24.952 C111.336,25.72 111.182,26.542 111.182,27.404 C111.182,31.501 114.5,34.821 118.6,34.821 C122.696,34.821 126.018,31.501 126.018,27.404 C126.018,25.217 125.065,23.258 123.559,21.899" id="Fill-57" fill="#1A1918"></path>
        </g>
    </g>
</svg>